<?xml version="1.0" standalone="no"?>
<!DOCTYPE svg PUBLIC "-//W3C//DTD SVG 20010904//EN"
 "http://www.w3.org/TR/2001/REC-SVG-20010904/DTD/svg10.dtd">
<svg version="1.0" xmlns="http://www.w3.org/2000/svg"
 width="16.000000pt" height="16.000000pt" viewBox="0 0 16.000000 16.000000"
 preserveAspectRatio="xMidYMid meet">
<metadata>
Created by potrace 1.11, written by Peter Selinger 2001-2013
</metadata>
<g transform="translate(0.000000,16.000000) scale(0.001778,-0.001778)"
fill="#000000" stroke="none">
<path d="M4377 8955 c-1 -2 -58 -5 -127 -9 -69 -3 -138 -8 -155 -10 -16 -3
-52 -7 -80 -10 -27 -4 -61 -8 -75 -10 -14 -3 -59 -10 -100 -16 -64 -11 -165
-31 -220 -44 -8 -2 -28 -7 -45 -11 -157 -37 -422 -123 -542 -176 -23 -11 -44
-19 -47 -19 -15 0 -307 -146 -402 -200 -207 -120 -436 -279 -574 -400 -14 -12
-52 -45 -85 -73 -67 -59 -215 -205 -290 -288 -385 -423 -674 -929 -841 -1474
-26 -84 -81 -299 -89 -350 -3 -16 -8 -43 -12 -60 -3 -16 -7 -39 -9 -50 -2 -11
-5 -31 -8 -45 -6 -29 -13 -79 -22 -165 -3 -33 -8 -71 -10 -85 -22 -138 -22
-625 0 -760 3 -14 7 -52 11 -85 9 -93 14 -122 35 -235 27 -143 26 -137 45
-210 9 -36 19 -74 21 -85 17 -88 110 -356 184 -530 99 -234 295 -578 425 -747
11 -14 31 -41 45 -59 230 -305 561 -626 850 -825 l45 -31 1 -880 c0 -695 3
-886 13 -911 28 -68 85 -73 184 -15 48 28 193 167 639 612 318 317 582 577
588 579 6 2 50 -3 98 -12 48 -8 110 -18 137 -22 28 -3 59 -8 69 -10 11 -2 56
-6 100 -10 45 -3 97 -8 116 -10 42 -5 463 -4 505 1 17 2 66 6 110 10 44 3 91
8 105 11 14 2 48 6 75 10 54 6 299 51 327 60 9 2 25 6 35 8 51 10 219 57 263
73 8 4 20 7 26 8 67 15 384 145 529 217 354 178 651 386 944 663 325 308 596
673 794 1071 202 405 335 842 382 1257 3 26 7 66 10 90 24 216 24 596 0 772
-2 17 -7 54 -10 84 -4 47 -18 144 -29 206 -2 11 -7 38 -11 60 -15 82 -75 323
-104 415 -207 662 -586 1255 -1107 1731 -62 57 -261 219 -268 219 -4 0 -17 9
-29 20 -12 11 -78 58 -147 104 -538 356 -1081 553 -1740 630 -112 14 -522 29
-533 21z m-568 -2450 c20 -4 47 -9 61 -11 115 -20 256 -92 338 -172 122 -119
206 -310 229 -517 15 -130 7 -508 -12 -575 -2 -8 -7 -33 -10 -55 -3 -23 -7
-52 -10 -65 -7 -36 -19 -94 -20 -100 -1 -3 -5 -18 -9 -35 -15 -60 -79 -251
-103 -310 -81 -196 -221 -430 -366 -609 -85 -105 -276 -301 -361 -371 -26 -22
-58 -49 -71 -60 -48 -42 -75 -63 -214 -163 -173 -124 -201 -140 -212 -121 -4
8 -82 113 -173 233 l-165 219 22 19 c12 11 31 27 42 36 99 82 152 127 160 136
6 6 48 43 95 82 47 40 103 89 125 110 90 86 179 233 211 349 22 82 28 257 10
316 -34 113 -109 234 -235 379 -108 125 -182 237 -223 335 -30 74 -32 90 -34
200 -4 257 58 439 196 575 100 99 242 160 410 176 36 4 66 7 67 9 6 4 219 -4
252 -10z m2131 0 c154 -23 308 -94 404 -188 114 -111 198 -299 223 -501 15
-116 8 -488 -11 -586 -1 -8 -6 -37 -10 -65 -21 -133 -75 -328 -131 -470 -30
-78 -114 -257 -124 -265 -3 -3 -17 -25 -30 -50 -139 -261 -439 -593 -751 -832
-90 -68 -260 -186 -297 -206 -21 -12 -31 0 -193 214 -124 165 -169 232 -165
245 4 11 9 19 13 19 4 0 18 10 32 23 14 12 102 87 195 167 193 164 242 212
295 290 52 76 75 124 99 205 63 214 39 358 -90 552 -48 72 -56 82 -142 182
-126 145 -201 272 -232 390 -24 94 -15 284 19 406 2 6 7 24 11 40 40 149 172
303 314 366 71 31 179 59 256 65 39 4 71 7 73 9 5 4 198 -4 242 -10z"/>
</g>
</svg>
